<?xml version="1.0" encoding="utf-8"?>
<!-- Generator: Adobe Illustrator 25.2.3, SVG Export Plug-In . SVG Version: 6.00 Build 0)  -->
<svg version="1.1" id="Vrstva_1" xmlns="http://www.w3.org/2000/svg" xmlns:xlink="http://www.w3.org/1999/xlink" x="0px" y="0px"
	 viewBox="0 0 500 500" style="enable-background:new 0 0 500 500;" xml:space="preserve">
<style type="text/css">
	.st0{fill:#6495C8;}
	.st1{fill:#DBEFF6;}
	.st2{fill:#EFF8FA;}
	.st3{fill:#97B1B6;}
	.st4{fill:#B0B6B7;}
</style>
<g>
	<path class="st0" d="M492.26,251.15c0,134.05-108.68,242.73-242.74,242.73C115.45,493.88,6.77,385.2,6.77,251.15
		C6.77,117.08,115.45,8.4,249.52,8.4C383.57,8.4,492.26,117.08,492.26,251.15z"/>
	<g>
		<g>
			<path class="st1" d="M77.15,148.84v196.81c0,6.16,5.4,11.14,12.05,11.14h320.67c6.66,0,12.06-4.99,12.06-11.14V148.84
				l-34.04,0.28L249.57,256.83L118.05,148.84H77.15z"/>
		</g>
		<g>
			<path class="st2" d="M387.92,149.12L249.61,256.83L118.08,148.84h-40.9v196.81c0,6.16,5.4,11.14,12.06,11.14h320.66
				c6.65,0,12.05-4.99,12.05-11.14V148.84L387.92,149.12z M414.95,342c0,5.91-5.18,10.7-11.58,10.7H95.53
				c-6.39,0-11.58-4.79-11.58-10.7V153.06h30.08l135.54,111.86l140.48-111.66l24.9-0.21V342z"/>
		</g>
		<path class="st3" d="M77.57,149.3c0,0,139.45,158.62,171.44,158.62c28.73,0,172.26-158.43,172.26-158.43s-5.58,3.49-11.54,3.49
			c-59.07,0-253.21,0-322.23,0C82.93,152.98,77.57,149.3,77.57,149.3z"/>
		<polygon class="st3" points="283.84,230.15 292.21,223.63 407.72,337.66 270.95,236.99 		"/>
		<polygon class="st3" points="217.09,230.02 206.89,221.78 92.52,340.02 228.13,236.99 		"/>
		<path class="st1" d="M79.95,352.72c0,0,137.61-141.37,169.59-141.37c28.73,0,169.65,141.37,169.65,141.37s-3.35,4.07-9.31,4.07
			c-59.08,0-253.21,0-322.22,0C83.08,356.79,79.95,352.72,79.95,352.72z"/>
		<path class="st2" d="M411.41,345.09c-1.44,0.76-3.27,1.38-5.46,1.38c-57.62,0-246.96,0-314.27,0c-1.6,0-3.01-0.57-4.16-1.27
			c-4.75,4.79-7.53,7.64-7.53,7.64s3.13,4.07,7.69,4.07c69.01,0,263.15,0,322.22,0c5.96,0,9.31-4.07,9.31-4.07
			S416.32,349.94,411.41,345.09z"/>
		<path class="st2" d="M418.75,353.1c0,0-140.92-141.37-169.65-141.37c-31.98,0-169.59,141.37-169.59,141.37
			S217.12,215.16,249.1,215.16C277.83,215.16,418.75,353.1,418.75,353.1z"/>
		<path class="st1" d="M77.15,148.84c0,0,140.66,145.67,172.64,145.67c28.73,0,172.14-145.67,172.14-145.67s-5.84,0.23-11.82,0.23
			c-59.07,0-253.21,0-322.22,0C83.33,149.07,77.15,148.84,77.15,148.84z"/>
		<g>
			<path class="st2" d="M421.93,148.84c0,0-5.93,0.15-11.9,0.15c-59.06,0-253.21,0-322.22,0c-4.57,0-10.75-0.23-10.75-0.23
				s-0.15-0.06,6.9,7.07c69.45,0,271.93-0.13,330.86-0.13C414.94,155.69,421.93,148.84,421.93,148.84z"/>
		</g>
		<path class="st2" d="M419,151.8c0,0-140.92,142.32-169.65,142.32c-31.98,0-171.28-144.3-171.28-144.3S217.62,284.07,249.6,284.07
			C278.33,284.07,419,151.8,419,151.8z"/>
		<path class="st4" d="M149.13,220.12c37.86,38.16,81.78,78.41,98.6,78.41c12.4,0,46.17-25.98,77.38-56.83
			c-32.27,28.59-65.7,51.53-77.38,51.53C231.7,293.23,188.37,256.63,149.13,220.12z"/>
	</g>
</g>
</svg>
